<svg xmlns="http://www.w3.org/2000/svg" viewBox="0 0 600 450">
  <defs>
    <linearGradient id="bg" x1="0" y1="0" x2="0" y2="1">
      <stop offset="0%" stop-color="#0d5ba6"/>
      <stop offset="100%" stop-color="#1a6fc4"/>
    </linearGradient>
  </defs>
  <rect width="600" height="450" fill="url(#bg)"/>
  <!-- Lab bench -->
  <rect x="80" y="260" width="440" height="10" fill="white" opacity="0.3" rx="2"/>
  <!-- Microscope -->
  <rect x="180" y="170" width="8" height="90" fill="white" opacity="0.5" rx="2"/>
  <rect x="160" y="160" width="48" height="15" fill="white" opacity="0.4" rx="3"/>
  <circle cx="184" cy="155" r="12" fill="white" opacity="0.3"/>
  <rect x="170" y="255" width="28" height="8" fill="white" opacity="0.3" rx="1"/>
  <!-- Test tubes -->
  <rect x="300" y="200" width="12" height="60" fill="#7ec8f0" opacity="0.5" rx="4"/>
  <rect x="320" y="210" width="12" height="50" fill="#4da8e8" opacity="0.4" rx="4"/>
  <rect x="340" y="195" width="12" height="65" fill="#7ec8f0" opacity="0.6" rx="4"/>
  <rect x="360" y="215" width="12" height="45" fill="#4da8e8" opacity="0.3" rx="4"/>
  <!-- Flask -->
  <path d="M420,180 L420,230 L400,260 L450,260 L430,230 L430,180 Z" fill="white" opacity="0.25" stroke="white" stroke-width="1" stroke-opacity="0.4"/>
  <rect x="415" y="175" width="20" height="8" fill="white" opacity="0.3" rx="2"/>
  <!-- Title -->
  <text x="300" y="340" text-anchor="middle" fill="white" font-size="32" font-weight="bold" font-family="sans-serif">实验室</text>
  <text x="300" y="370" text-anchor="middle" fill="white" font-size="14" font-family="sans-serif" opacity="0.7" letter-spacing="3">LABORATORY</text>
</svg>