<svg xmlns="http://www.w3.org/2000/svg" viewBox="0 0 1920 1080">
  <defs>
    <linearGradient id="sky" x1="0" y1="0" x2="0" y2="1">
      <stop offset="0%" stop-color="#041e42"/>
      <stop offset="40%" stop-color="#0a4f8a"/>
      <stop offset="70%" stop-color="#0d5ba6"/>
      <stop offset="100%" stop-color="#1a6fc4"/>
    </linearGradient>
    <linearGradient id="water" x1="0" y1="0" x2="0" y2="1">
      <stop offset="0%" stop-color="#0d5ba6" stop-opacity="0.8"/>
      <stop offset="100%" stop-color="#041e42"/>
    </linearGradient>
    <filter id="glow">
      <feGaussianBlur stdDeviation="3" result="blur"/>
      <feMerge><feMergeNode in="blur"/><feMergeNode in="SourceGraphic"/></feMerge>
    </filter>
    <filter id="windowGlow">
      <feGaussianBlur stdDeviation="1.5"/>
    </filter>
  </defs>
  <!-- Sky -->
  <rect width="1920" height="1080" fill="url(#sky)"/>
  <!-- Stars -->
  <circle cx="200" cy="80" r="1.5" fill="white" opacity="0.6"/>
  <circle cx="450" cy="120" r="1" fill="white" opacity="0.4"/>
  <circle cx="700" cy="50" r="1.5" fill="white" opacity="0.5"/>
  <circle cx="900" cy="150" r="1" fill="white" opacity="0.3"/>
  <circle cx="1100" cy="70" r="1.5" fill="white" opacity="0.5"/>
  <circle cx="1300" cy="100" r="1" fill="white" opacity="0.4"/>
  <circle cx="1500" cy="60" r="1.5" fill="white" opacity="0.6"/>
  <circle cx="1700" cy="130" r="1" fill="white" opacity="0.3"/>
  <circle cx="350" cy="200" r="1" fill="white" opacity="0.3"/>
  <circle cx="1600" cy="180" r="1" fill="white" opacity="0.4"/>
  <!-- Water -->
  <rect x="0" y="680" width="1920" height="400" fill="url(#water)"/>
  <!-- Buildings - far left -->
  <rect x="50" y="380" width="80" height="300" fill="#0a3d6e" rx="2"/>
  <rect x="55" y="390" width="10" height="12" fill="#4da8e8" opacity="0.6" filter="url(#windowGlow)"/>
  <rect x="75" y="390" width="10" height="12" fill="#4da8e8" opacity="0.4"/>
  <rect x="95" y="390" width="10" height="12" fill="#4da8e8" opacity="0.5" filter="url(#windowGlow)"/>
  <rect x="55" y="415" width="10" height="12" fill="#4da8e8" opacity="0.3"/>
  <rect x="75" y="415" width="10" height="12" fill="#4da8e8" opacity="0.6" filter="url(#windowGlow)"/>
  <rect x="95" y="415" width="10" height="12" fill="#4da8e8" opacity="0.4"/>
  <rect x="55" y="440" width="10" height="12" fill="#4da8e8" opacity="0.5" filter="url(#windowGlow)"/>
  <rect x="75" y="440" width="10" height="12" fill="#7ec8f0" opacity="0.7" filter="url(#windowGlow)"/>
  <rect x="95" y="440" width="10" height="12" fill="#4da8e8" opacity="0.3"/>
  <!-- Building 2 -->
  <rect x="160" y="320" width="100" height="360" fill="#08355f" rx="2"/>
  <rect x="168" y="335" width="12" height="14" fill="#7ec8f0" opacity="0.5" filter="url(#windowGlow)"/>
  <rect x="190" y="335" width="12" height="14" fill="#4da8e8" opacity="0.7" filter="url(#windowGlow)"/>
  <rect x="212" y="335" width="12" height="14" fill="#7ec8f0" opacity="0.4"/>
  <rect x="234" y="335" width="12" height="14" fill="#4da8e8" opacity="0.6" filter="url(#windowGlow)"/>
  <rect x="168" y="360" width="12" height="14" fill="#4da8e8" opacity="0.4"/>
  <rect x="190" y="360" width="12" height="14" fill="#7ec8f0" opacity="0.6" filter="url(#windowGlow)"/>
  <rect x="212" y="360" width="12" height="14" fill="#4da8e8" opacity="0.5" filter="url(#windowGlow)"/>
  <rect x="234" y="360" width="12" height="14" fill="#7ec8f0" opacity="0.3"/>
  <rect x="168" y="385" width="12" height="14" fill="#7ec8f0" opacity="0.7" filter="url(#windowGlow)"/>
  <rect x="190" y="385" width="12" height="14" fill="#4da8e8" opacity="0.3"/>
  <rect x="212" y="385" width="12" height="14" fill="#7ec8f0" opacity="0.6" filter="url(#windowGlow)"/>
  <rect x="234" y="385" width="12" height="14" fill="#4da8e8" opacity="0.5"/>
  <!-- Tall tower -->
  <rect x="300" y="200" width="60" height="480" fill="#0b4a80" rx="2"/>
  <rect x="315" y="180" width="30" height="20" fill="#0b4a80"/>
  <rect x="325" y="160" width="10" height="20" fill="#0b4a80"/>
  <circle cx="330" cy="155" r="3" fill="#ff4444" opacity="0.8" filter="url(#glow)"/>
  <rect x="308" y="215" width="8" height="10" fill="#7ec8f0" opacity="0.6" filter="url(#windowGlow)"/>
  <rect x="322" y="215" width="8" height="10" fill="#4da8e8" opacity="0.8" filter="url(#windowGlow)"/>
  <rect x="336" y="215" width="8" height="10" fill="#7ec8f0" opacity="0.5"/>
  <rect x="308" y="235" width="8" height="10" fill="#4da8e8" opacity="0.4"/>
  <rect x="322" y="235" width="8" height="10" fill="#7ec8f0" opacity="0.7" filter="url(#windowGlow)"/>
  <rect x="336" y="235" width="8" height="10" fill="#4da8e8" opacity="0.5" filter="url(#windowGlow)"/>
  <!-- Big building center-left -->
  <rect x="400" y="280" width="140" height="400" fill="#072d52" rx="3"/>
  <rect x="410" y="295" width="14" height="16" fill="#4da8e8" opacity="0.5" filter="url(#windowGlow)"/>
  <rect x="434" y="295" width="14" height="16" fill="#7ec8f0" opacity="0.7" filter="url(#windowGlow)"/>
  <rect x="458" y="295" width="14" height="16" fill="#4da8e8" opacity="0.4"/>
  <rect x="482" y="295" width="14" height="16" fill="#7ec8f0" opacity="0.6" filter="url(#windowGlow)"/>
  <rect x="506" y="295" width="14" height="16" fill="#4da8e8" opacity="0.3"/>
  <rect x="410" y="325" width="14" height="16" fill="#7ec8f0" opacity="0.6" filter="url(#windowGlow)"/>
  <rect x="434" y="325" width="14" height="16" fill="#4da8e8" opacity="0.3"/>
  <rect x="458" y="325" width="14" height="16" fill="#7ec8f0" opacity="0.8" filter="url(#windowGlow)"/>
  <rect x="482" y="325" width="14" height="16" fill="#4da8e8" opacity="0.5"/>
  <rect x="506" y="325" width="14" height="16" fill="#7ec8f0" opacity="0.4" filter="url(#windowGlow)"/>
  <!-- Center buildings -->
  <rect x="580" y="350" width="90" height="330" fill="#0a3d6e" rx="2"/>
  <rect x="700" y="250" width="120" height="430" fill="#083560" rx="3"/>
  <rect x="710" y="265" width="12" height="14" fill="#7ec8f0" opacity="0.5" filter="url(#windowGlow)"/>
  <rect x="730" y="265" width="12" height="14" fill="#4da8e8" opacity="0.7" filter="url(#windowGlow)"/>
  <rect x="750" y="265" width="12" height="14" fill="#7ec8f0" opacity="0.4"/>
  <rect x="770" y="265" width="12" height="14" fill="#4da8e8" opacity="0.6" filter="url(#windowGlow)"/>
  <rect x="790" y="265" width="12" height="14" fill="#7ec8f0" opacity="0.3"/>
  <!-- Tallest tower -->
  <rect x="860" y="150" width="80" height="530" fill="#06305e" rx="2"/>
  <rect x="885" y="120" width="30" height="30" fill="#06305e"/>
  <rect x="895" y="100" width="10" height="20" fill="#06305e"/>
  <circle cx="900" cy="95" r="4" fill="#ff4444" opacity="0.9" filter="url(#glow)"/>
  <rect x="870" y="170" width="10" height="12" fill="#7ec8f0" opacity="0.8" filter="url(#windowGlow)"/>
  <rect x="888" y="170" width="10" height="12" fill="#4da8e8" opacity="0.5" filter="url(#windowGlow)"/>
  <rect x="906" y="170" width="10" height="12" fill="#7ec8f0" opacity="0.7" filter="url(#windowGlow)"/>
  <rect x="924" y="170" width="10" height="12" fill="#4da8e8" opacity="0.4"/>
  <rect x="870" y="195" width="10" height="12" fill="#4da8e8" opacity="0.6" filter="url(#windowGlow)"/>
  <rect x="888" y="195" width="10" height="12" fill="#7ec8f0" opacity="0.3"/>
  <rect x="906" y="195" width="10" height="12" fill="#4da8e8" opacity="0.8" filter="url(#windowGlow)"/>
  <rect x="924" y="195" width="10" height="12" fill="#7ec8f0" opacity="0.5" filter="url(#windowGlow)"/>
  <!-- Right side buildings -->
  <rect x="980" y="300" width="110" height="380" fill="#0a4272" rx="2"/>
  <rect x="1120" y="380" width="80" height="300" fill="#0b4a80" rx="2"/>
  <rect x="1230" y="260" width="100" height="420" fill="#072d52" rx="3"/>
  <rect x="1240" y="275" width="12" height="14" fill="#4da8e8" opacity="0.5" filter="url(#windowGlow)"/>
  <rect x="1260" y="275" width="12" height="14" fill="#7ec8f0" opacity="0.7" filter="url(#windowGlow)"/>
  <rect x="1280" y="275" width="12" height="14" fill="#4da8e8" opacity="0.4"/>
  <rect x="1300" y="275" width="12" height="14" fill="#7ec8f0" opacity="0.6" filter="url(#windowGlow)"/>
  <rect x="1360" y="350" width="90" height="330" fill="#0a3d6e" rx="2"/>
  <rect x="1480" y="400" width="70" height="280" fill="#083560" rx="2"/>
  <rect x="1580" y="320" width="110" height="360" fill="#0b4a80" rx="2"/>
  <rect x="1720" y="380" width="80" height="300" fill="#072d52" rx="2"/>
  <rect x="1830" y="420" width="90" height="260" fill="#0a3d6e" rx="2"/>
  <!-- Water reflections -->
  <rect x="50" y="690" width="80" height="120" fill="#0a3d6e" opacity="0.3"/>
  <rect x="160" y="690" width="100" height="100" fill="#08355f" opacity="0.25"/>
  <rect x="300" y="690" width="60" height="150" fill="#0b4a80" opacity="0.2"/>
  <rect x="400" y="690" width="140" height="130" fill="#072d52" opacity="0.25"/>
  <rect x="700" y="690" width="120" height="110" fill="#083560" opacity="0.2"/>
  <rect x="860" y="690" width="80" height="160" fill="#06305e" opacity="0.3"/>
  <rect x="980" y="690" width="110" height="120" fill="#0a4272" opacity="0.2"/>
  <rect x="1230" y="690" width="100" height="130" fill="#072d52" opacity="0.25"/>
  <!-- Reflection light lines -->
  <line x1="100" y1="720" x2="300" y2="720" stroke="#4da8e8" stroke-width="1" opacity="0.15"/>
  <line x1="500" y1="750" x2="800" y2="750" stroke="#7ec8f0" stroke-width="0.8" opacity="0.12"/>
  <line x1="900" y1="730" x2="1200" y2="730" stroke="#4da8e8" stroke-width="1" opacity="0.1"/>
  <line x1="200" y1="780" x2="600" y2="780" stroke="#7ec8f0" stroke-width="0.5" opacity="0.08"/>
  <line x1="1000" y1="770" x2="1500" y2="770" stroke="#4da8e8" stroke-width="0.8" opacity="0.1"/>
</svg>